<svg xmlns="http://www.w3.org/2000/svg" width="1320" height="750" viewBox="0 0 1320 750" role="img" aria-labelledby="title desc">
<title id="title">IoU на validation по эпохам</title>
<desc id="desc">Истории пяти вариантов, 25 эпох каждый, все значения IoU при пороге 0,5.</desc>
<style>text{font-family:"Segoe UI",Arial,sans-serif}.title{font-size:27px;font-weight:700;fill:#14233a}.sub{font-size:15px;fill:#64748b}.head{font-size:17px;font-weight:700;fill:#263b55}.label{font-size:15px;font-weight:600;fill:#263b55}.detail{font-size:13px;fill:#64748b}.tick{font-size:12px;fill:#748296}.value{font-size:16px;font-weight:700;fill:#263b55}.note{font-size:13px;fill:#64748b}</style>
<rect x="0.0" y="0.0" width="1320.0" height="750.0" rx="20.0" fill="#f6f8fc"/>
<text x="48.0" y="52.0" class="title" text-anchor="start">IoU на validation по эпохам</text>
<text x="48.0" y="80.0" class="sub" text-anchor="start">25 эпох · одинаковый порог 0,5 · кружок отмечает лучшую эпоху</text>
<rect x="30.0" y="105.0" width="1260.0" height="605.0" rx="16.0" fill="#ffffff"/>
<rect x="80.0" y="132.0" width="25.0" height="5.0" rx="2.0" fill="#66758b"/>
<text x="114.0" y="137.0" class="label" text-anchor="start">U-Net · BCE</text>
<text x="114.0" y="158.0" class="detail" text-anchor="start">лучшее 0,336 · эпоха 19</text>
<rect x="430.0" y="132.0" width="25.0" height="5.0" rx="2.0" fill="#d06b47"/>
<text x="464.0" y="137.0" class="label" text-anchor="start">U-Net · BCE + Dice</text>
<text x="464.0" y="158.0" class="detail" text-anchor="start">лучшее 0,408 · эпоха 25</text>
<rect x="810.0" y="132.0" width="25.0" height="5.0" rx="2.0" fill="#008c80"/>
<text x="844.0" y="137.0" class="label" text-anchor="start">ResNet18 U-Net · исходная</text>
<text x="844.0" y="158.0" class="detail" text-anchor="start">лучшее 0,499 · эпоха 23</text>
<rect x="80.0" y="186.0" width="25.0" height="5.0" rx="2.0" fill="#426bca"/>
<text x="114.0" y="191.0" class="label" text-anchor="start">ResNet18 U-Net · баланс 25%</text>
<text x="114.0" y="212.0" class="detail" text-anchor="start">лучшее 0,560 · эпоха 16</text>
<rect x="625.0" y="186.0" width="25.0" height="5.0" rx="2.0" fill="#7b4bc2"/>
<text x="659.0" y="191.0" class="label" text-anchor="start">ResNet18 U-Net · баланс 25%, LR 0,0001</text>
<text x="659.0" y="212.0" class="detail" text-anchor="start">лучшее 0,617 · эпоха 10</text>
<line x1="92.0" y1="649.0" x2="1260.0" y2="649.0" stroke="#e1e7ef" stroke-width="1"/>
<text x="78.0" y="653.0" class="tick" text-anchor="end">0,0</text>
<line x1="92.0" y1="593.1" x2="1260.0" y2="593.1" stroke="#e1e7ef" stroke-width="1"/>
<text x="78.0" y="597.1" class="tick" text-anchor="end">0,1</text>
<line x1="92.0" y1="537.3" x2="1260.0" y2="537.3" stroke="#e1e7ef" stroke-width="1"/>
<text x="78.0" y="541.3" class="tick" text-anchor="end">0,2</text>
<line x1="92.0" y1="481.4" x2="1260.0" y2="481.4" stroke="#e1e7ef" stroke-width="1"/>
<text x="78.0" y="485.4" class="tick" text-anchor="end">0,3</text>
<line x1="92.0" y1="425.6" x2="1260.0" y2="425.6" stroke="#e1e7ef" stroke-width="1"/>
<text x="78.0" y="429.6" class="tick" text-anchor="end">0,4</text>
<line x1="92.0" y1="369.7" x2="1260.0" y2="369.7" stroke="#e1e7ef" stroke-width="1"/>
<text x="78.0" y="373.7" class="tick" text-anchor="end">0,5</text>
<line x1="92.0" y1="313.9" x2="1260.0" y2="313.9" stroke="#e1e7ef" stroke-width="1"/>
<text x="78.0" y="317.9" class="tick" text-anchor="end">0,6</text>
<line x1="92.0" y1="258.0" x2="1260.0" y2="258.0" stroke="#e1e7ef" stroke-width="1"/>
<text x="78.0" y="262.0" class="tick" text-anchor="end">0,7</text>
<text x="92.0" y="674.0" class="tick" text-anchor="middle">1</text>
<text x="286.7" y="674.0" class="tick" text-anchor="middle">5</text>
<text x="530.0" y="674.0" class="tick" text-anchor="middle">10</text>
<text x="773.3" y="674.0" class="tick" text-anchor="middle">15</text>
<text x="1016.7" y="674.0" class="tick" text-anchor="middle">20</text>
<text x="1260.0" y="674.0" class="tick" text-anchor="middle">25</text>
<text x="77.0" y="245.0" class="note" text-anchor="end">IoU</text>
<text x="676.0" y="698.0" class="note" text-anchor="middle">Эпоха</text>
<polyline points="92.0,559.7 140.7,532.4 189.3,562.9 238.0,542.6 286.7,577.0 335.3,649.0 384.0,534.1 432.7,559.9 481.3,627.7 530.0,530.5 578.7,483.3 627.3,471.9 676.0,472.3 724.7,553.4 773.3,490.7 822.0,481.0 870.7,475.5 919.3,471.8 968.0,461.4 1016.7,508.0 1065.3,480.5 1114.0,504.2 1162.7,468.5 1211.3,482.8 1260.0,642.0" fill="none" stroke="#66758b" stroke-width="3.3" stroke-linecap="round" stroke-linejoin="round" opacity="0.9"/>
<circle cx="968.0" cy="461.4" r="6" fill="#ffffff" stroke="#66758b" stroke-width="3"/>
<polyline points="92.0,638.7 140.7,629.3 189.3,637.2 238.0,542.7 286.7,630.4 335.3,547.1 384.0,633.5 432.7,531.6 481.3,465.8 530.0,532.9 578.7,583.9 627.3,612.3 676.0,607.9 724.7,536.4 773.3,442.5 822.0,471.3 870.7,528.4 919.3,479.5 968.0,622.9 1016.7,453.3 1065.3,498.2 1114.0,477.0 1162.7,444.5 1211.3,575.8 1260.0,421.1" fill="none" stroke="#d06b47" stroke-width="3.3" stroke-linecap="round" stroke-linejoin="round" opacity="0.9"/>
<circle cx="1260.0" cy="421.1" r="6" fill="#ffffff" stroke="#d06b47" stroke-width="3"/>
<polyline points="92.0,556.4 140.7,557.3 189.3,642.5 238.0,606.3 286.7,525.5 335.3,557.6 384.0,588.4 432.7,477.8 481.3,437.8 530.0,454.0 578.7,592.8 627.3,482.3 676.0,520.6 724.7,562.9 773.3,557.1 822.0,441.5 870.7,406.7 919.3,439.9 968.0,442.9 1016.7,566.1 1065.3,574.0 1114.0,482.9 1162.7,370.2 1211.3,526.4 1260.0,402.4" fill="none" stroke="#008c80" stroke-width="3.3" stroke-linecap="round" stroke-linejoin="round" opacity="0.9"/>
<circle cx="1162.7" cy="370.2" r="6" fill="#ffffff" stroke="#008c80" stroke-width="3"/>
<polyline points="92.0,510.7 140.7,438.8 189.3,411.8 238.0,574.7 286.7,617.4 335.3,402.8 384.0,419.7 432.7,628.3 481.3,569.2 530.0,645.4 578.7,643.8 627.3,413.8 676.0,419.0 724.7,603.2 773.3,357.0 822.0,336.0 870.7,350.3 919.3,350.0 968.0,472.5 1016.7,455.2 1065.3,366.4 1114.0,390.2 1162.7,383.1 1211.3,381.9 1260.0,457.5" fill="none" stroke="#426bca" stroke-width="3.3" stroke-linecap="round" stroke-linejoin="round" opacity="0.9"/>
<circle cx="822.0" cy="336.0" r="6" fill="#ffffff" stroke="#426bca" stroke-width="3"/>
<polyline points="92.0,536.1 140.7,558.3 189.3,372.1 238.0,348.8 286.7,593.6 335.3,403.1 384.0,373.3 432.7,447.7 481.3,538.8 530.0,304.2 578.7,348.2 627.3,319.9 676.0,360.8 724.7,311.1 773.3,306.3 822.0,317.0 870.7,324.8 919.3,342.8 968.0,521.8 1016.7,337.2 1065.3,349.7 1114.0,336.2 1162.7,313.9 1211.3,334.8 1260.0,325.2" fill="none" stroke="#7b4bc2" stroke-width="3.3" stroke-linecap="round" stroke-linejoin="round" opacity="0.9"/>
<circle cx="530.0" cy="304.2" r="6" fill="#ffffff" stroke="#7b4bc2" stroke-width="3"/>
</svg>
